Coordinates
version=1
nRows=16
nColumns=40
inDegrees=yes

Units are S.I. units (second, meters, Newtons, ...)
If the header above contains a line with 'inDegrees', this indicates whether rotational values are in degrees (yes) or radians (no).

endheader
time	pelvis_tilt	pelvis_list	pelvis_rotation	pelvis_tx	pelvis_ty	pelvis_tz	hip_flexion_r	hip_adduction_r	hip_rotation_r	knee_angle_r	knee_angle_r_beta	ankle_angle_r	subtalar_angle_r	mtp_angle_r	hip_flexion_l	hip_adduction_l	hip_rotation_l	knee_angle_l	knee_angle_l_beta	ankle_angle_l	subtalar_angle_l	mtp_angle_l	lumbar_extension	lumbar_bending	lumbar_rotation	arm_flex_r	arm_add_r	arm_rot_r	elbow_flex_r	pro_sup_r	wrist_flex_r	wrist_dev_r	arm_flex_l	arm_add_l	arm_rot_l	elbow_flex_l	pro_sup_l	wrist_flex_l	wrist_dev_l
      9.60000000	      3.96017191	      0.14430917	     -1.52392299	      0.49844180	      0.98810506	      0.03236122	      5.02425794	      1.16557033	     -4.78439768	     12.69001560	      0.22148255	      0.12008673	      0.00000000	     -7.49942064	      7.40090634	     -6.14086957	     -8.58352574	     56.91511486	      0.99335615	    -10.87491404	    -19.47166536	     -7.49942064	     -9.13807750	      0.59299721	      2.71555553	    -10.44523915	      5.14383206	    -34.55523271	     47.03025429	     65.12083141	      0.00000000	      0.00000000	     -8.87563178	      2.59158989	    -17.34325946	     36.13427882	     65.40202519	      0.00000000	      0.00000000
      9.61000000	      3.72962332	     -0.02770528	     -1.53052227	      0.50516221	      0.98846419	      0.03351648	      4.49194814	      1.48343636	     -4.60488709	     12.08600177	      0.21094052	      0.34763613	      0.00000000	     -7.49942924	      8.85743020	     -6.42814594	     -8.49324737	     57.42550958	      1.00226422	    -10.16800343	    -19.88332205	     -7.49942924	     -8.90487793	      0.79564552	      2.79240787	    -10.19631674	      4.89459790	    -34.62211776	     47.15430091	     65.18463066	      0.00000000	      0.00000000	     -9.22139914	      2.68591551	    -17.39575358	     35.88667254	     65.47568608	      0.00000000	      0.00000000
      9.62000000	      3.78606339	      0.07050502	     -1.58113278	      0.51190853	      0.98926993	      0.03464018	      3.65051033	      1.47674850	     -4.51937081	     11.49565116	      0.20063696	      0.40394882	      0.00000000	     -7.49942655	      9.83483447	     -6.37334828	     -8.49703316	     57.42149138	      1.00219409	    -10.07362707	    -20.12733806	     -7.49942655	     -9.01522793	      0.61279882	      3.01422165	    -10.04216595	      4.84213347	    -34.61849797	     47.14094811	     65.21870005	      0.00000000	      0.00000000	     -9.44751241	      2.69736488	    -17.42442197	     35.68043697	     65.50532140	      0.00000000	      0.00000000
      9.63000000	      3.69741762	      0.05561817	     -1.60775322	      0.51861168	      0.98973885	      0.03565541	      2.96768268	      1.59619899	     -4.45545963	     10.89730660	      0.19019388	      0.99090453	      0.00000000	     -7.49948171	     10.97709990	     -6.40430642	     -8.38503251	     57.19546040	      0.99824910	     -7.99343577	    -19.49286793	     -7.49948171	     -8.95841921	      0.61568763	      3.01572643	     -9.89060743	      4.75828635	    -34.75521491	     47.59713452	     65.49009482	      0.00000000	      0.00000000	     -9.98067150	      2.83570348	    -17.77135465	     35.92300650	     65.84094682	      0.00000000	      0.00000000
      9.64000000	      3.71740844	      0.06948817	     -1.70149214	      0.52531933	      0.99027542	      0.03671047	      2.18776421	      1.65996857	     -4.48599192	     10.33906651	      0.18045075	      1.01360186	      0.00000000	     -7.49947757	     11.89722344	     -6.48730299	     -8.55596683	     56.75237675	      0.99051583	     -8.02221289	    -19.71782357	     -7.49947757	     -9.07667304	      0.55072769	      3.13799320	     -9.81462785	      4.72813825	    -34.75450228	     47.54367682	     65.51761418	      0.00000000	      0.00000000	    -10.07795282	      2.85227234	    -17.78240560	     35.75534354	     65.86659806	      0.00000000	      0.00000000
      9.65000000	      3.67127320	      0.13736528	     -1.65005031	      0.53195105	      0.99079507	      0.03762634	      1.39276358	      1.70753871	     -4.26505063	      9.57023123	      0.16703205	      1.04926550	      0.00000000	     -7.49947395	     12.86695968	     -6.38171154	     -8.42885304	     56.02016620	      0.97773635	     -7.98133426	    -19.92496081	     -7.49947395	     -9.00178087	      0.40647914	      3.41295412	     -9.56379507	      4.56667831	    -34.76803544	     47.58570170	     65.56384476	      0.00000000	      0.00000000	    -10.34295505	      2.88460075	    -17.82172127	     35.51828527	     65.90882948	      0.00000000	      0.00000000
      9.66000000	      3.55645587	      0.09208368	     -1.54646820	      0.53835942	      0.99102532	      0.03846976	      0.74169569	      1.87308086	     -4.11539931	      8.99706446	      0.15702840	      1.46589024	      0.00000000	     -7.49952905	     13.95765838	     -6.48399700	     -8.43457909	     55.29597984	      0.96509691	     -5.92399721	    -18.18157749	     -7.49952905	     -8.95727122	      0.43793704	      3.23236881	     -9.53452353	      4.57295921	    -34.90484826	     48.54516828	     65.71749516	      0.00000000	      0.00000000	    -11.04749062	      3.06586688	    -18.33367727	     36.34934284	     66.13787638	      0.00000000	      0.00000000
      9.67000000	      3.52506600	      0.01762922	     -1.51867707	      0.54501893	      0.99125026	      0.03925241	     -0.05026989	      2.02964483	     -4.20874120	      8.27644071	      0.14445114	      1.47612254	      0.00000000	     -7.49952507	     14.83897146	     -6.62229855	     -8.53445691	     54.34921756	      0.94857279	     -5.90100025	    -18.45342982	     -7.49952507	     -8.97365571	      0.47127433	      3.39769263	     -9.41076763	      4.46938202	    -34.91947361	     48.49472124	     65.76405630	      0.00000000	      0.00000000	    -11.15824393	      3.11028365	    -18.36162160	     36.13139113	     66.18588627	      0.00000000	      0.00000000
      9.68000000	      3.35282774	      0.21767581	     -1.41666468	      0.55134701	      0.99149925	      0.03989961	     -0.58004745	      1.89932272	     -3.99831686	      7.79575312	      0.13606156	      1.52209515	      0.00000000	     -7.49952680	     15.70577640	     -6.32941118	     -8.60707553	     52.67673991	      0.91938255	     -5.76509076	    -18.49865836	     -7.49952680	     -8.87257884	      0.23723149	      3.40363042	     -9.27963474	      4.34063737	    -34.94593002	     48.59869917	     65.79390625	      0.00000000	      0.00000000	    -11.31315612	      3.14418197	    -18.42734167	     36.06184424	     66.21939137	      0.00000000	      0.00000000
      9.69000000	      3.34220936	     -0.04293649	     -1.34447568	      0.55816549	      0.99102281	      0.04017771	     -1.32442110	      2.23566573	     -3.96513113	      7.23742337	      0.12631687	      1.57445514	      0.00000000	     -7.49952456	     16.59189897	     -6.54259062	     -8.46822389	     51.46216893	      0.89818429	     -5.68375314	    -18.67340668	     -7.49952456	     -8.90007779	      0.50786593	      3.57054319	     -9.17535165	      4.21437185	    -34.96772011	     48.62894743	     65.82566964	      0.00000000	      0.00000000	    -11.46489433	      3.22372859	    -18.45594950	     35.91509427	     66.25189279	      0.00000000	      0.00000000
      9.70000000	      3.19544987	     -0.05636345	     -1.24224864	      0.56473918	      0.99071025	      0.04077213	     -1.89084260	      2.33266344	     -3.94654561	      6.72663512	      0.11740193	      1.65669661	      0.00000000	     -7.49952380	     17.45003425	     -6.53344825	     -8.55550628	     49.85256860	      0.87009146	     -5.49287383	    -18.79476699	     -7.49952380	     -8.80460612	      0.45929123	      3.60019361	     -9.06304024	      4.03295966	    -35.00554217	     48.74972235	     65.85374933	      0.00000000	      0.00000000	    -11.58367988	      3.32749517	    -18.49162456	     35.82427569	     66.28157633	      0.00000000	      0.00000000
      9.71000000	      3.15608076	     -0.11894128	     -1.21189476	      0.57136986	      0.99032495	      0.04108193	     -2.43381727	      2.44031586	     -3.73371381	      6.51200680	      0.11365596	      1.92340363	      0.00000000	     -7.49953041	     18.11077992	     -6.51953616	     -8.62864150	     48.01270437	      0.83797977	     -4.99826089	    -18.71897816	     -7.49953041	     -8.82992030	      0.56877495	      3.66030192	     -8.99712203	      3.91718607	    -35.02128115	     49.10194275	     65.86991751	      0.00000000	      0.00000000	    -11.85958601	      3.43774755	    -18.62110680	     35.88220165	     66.29793140	      0.00000000	      0.00000000
      9.72000000	      3.05670720	     -0.37741207	     -1.00473321	      0.57767170	      0.98968786	      0.04151537	     -2.88090859	      2.79437512	     -3.78955899	      6.31035941	      0.11013655	      1.98684175	      0.00000000	     -7.49952931	     18.89551236	     -6.86383455	     -8.92646718	     46.29316651	      0.80796818	     -4.90737842	    -18.84217727	     -7.49952931	     -8.83985605	      0.83350380	      3.71297959	     -8.92611247	      3.87460531	    -35.01886423	     49.15006971	     65.88373717	      0.00000000	      0.00000000	    -11.85224727	      3.45300472	    -18.63916405	     35.85976101	     66.31313505	      0.00000000	      0.00000000
      9.73000000	      2.95312892	     -0.17018397	     -1.13835332	      0.58421597	      0.98928394	      0.04199066	     -3.21175633	      2.58416594	     -3.59183613	      6.32729259	      0.11043209	      2.29508819	      0.00000000	     -7.49953374	     19.37325787	     -6.75225151	     -9.77981816	     44.09805543	      0.76965626	     -4.54664518	    -18.85343789	     -7.49953374	     -8.85351024	      0.62077800	      3.84740552	     -8.75026534	      3.70081280	    -35.01587021	     49.47009650	     65.89379661	      0.00000000	      0.00000000	    -12.07195442	      3.57139027	    -18.72158315	     35.90792754	     66.31881500	      0.00000000	      0.00000000
      9.74000000	      2.97477774	     -0.28948481	     -1.11126108	      0.59085409	      0.98866680	      0.04248032	     -3.73179699	      2.76546098	     -3.51157165	      6.30601277	      0.11006069	      2.67915764	      0.00000000	     -7.49953683	     19.76301124	     -6.93994365	    -10.34866347	     41.94463472	      0.73207198	     -4.31918468	    -18.90142719	     -7.49953683	     -8.95919961	      0.65282187	      3.99119505	     -8.67827054	      3.62152452	    -34.99030378	     49.69159359	     65.91270522	      0.00000000	      0.00000000	    -12.16048575	      3.65882291	    -18.80668669	     35.94745746	     66.33772495	      0.00000000	      0.00000000
      9.75000000	      3.03174231	     -0.35483972	     -1.12932771	      0.59760858	      0.98814236	      0.04291597	     -4.24665680	      2.85444450	     -3.46985586	      6.35906392	      0.11098660	      3.23845275	      0.00000000	     -7.49954289	     19.98758170	     -7.09185641	    -11.09133794	     39.60326181	      0.69120731	     -4.14202242	    -18.77189642	     -7.49954289	     -9.11516389	      0.68848867	      4.19426492	     -8.65491734	      3.57793817	    -34.92800238	     49.98084954	     65.93116780	      0.00000000	      0.00000000	    -12.26577335	      3.73425594	    -18.94409022	     36.04995393	     66.35352161	      0.00000000	      0.00000000
